<svg id="Ebene_1" data-name="Ebene 1" xmlns="http://www.w3.org/2000/svg" viewBox="0 0 406.53 117.35"><defs><style>.cls-1{fill:#1d1d1b;}.cls-2{fill:none;stroke:#1d1d1b;stroke-miterlimit:10;stroke-width:2px;}</style></defs><title>SlogenTitelbild</title><path class="cls-1" d="M411.17,117.63c0,1.2,0,1.3-.6,1.6a8.21,8.21,0,0,1-4.2,1.1c-0.9,0-1.1-2.2-4.7-2.2-2.2,0-4.3.9-6.6,1.2-4.2.5-8,2-11.8,2.8a1.47,1.47,0,0,0-1.1,1.6,3.64,3.64,0,0,1-.2,1.5c-3,5.8-6.2,11.2-7.8,17.4,0,0.4.2,0.5,0.7,0.5,5.4-1.3,10.7-2.2,16.9-3.4a9.9,9.9,0,0,1,1.9-.3,6.23,6.23,0,0,1,1.8.6c3.6,1.5,4,2.2,4,3.7a1.21,1.21,0,0,1-1.1,1.4c-8.6,1.7-17.5,3.3-26,5.4a1.29,1.29,0,0,0-1.2,1c-2.1,4.2-2.5,9.1-4.3,13.2a8,8,0,0,0-.7,2,36.17,36.17,0,0,0-.9,6.9c0,2,.2,1.8.2,2.7a1.4,1.4,0,0,1-1.4,1.4,12.74,12.74,0,0,1-6.6-1.8,1.09,1.09,0,0,1-.7-1.2c0-6.3,2.4-13.4,4.1-19.3a3.52,3.52,0,0,0,.2-1.2,1.32,1.32,0,0,0-1.5-1,3.21,3.21,0,0,1-3.3-3,10.72,10.72,0,0,1-.6-1.7c0-.3.1-0.4,0.6-0.6,2.6-1,4.5-1.1,6.6-1.7a1.31,1.31,0,0,0,1-.9c2.5-5.9,5-12.6,7.4-18.3,0-.5-0.1-0.5-0.4-0.5-1,0-8,3.8-9.5,3.8-1.8,0-3.9-2.6-3.9-3.4,0-1.3,1-2.2,1.4-3.3a0.84,0.84,0,0,1,.7-0.7c5.1-1.2,7.7-2.2,15.5-5.3a25.56,25.56,0,0,1,2.9-1c7.6-1.9,16.3-4.8,23.8-4.8,2.7,0,6.3.1,9,3.7A4.13,4.13,0,0,1,411.17,117.63Z" transform="translate(-209.73 -97.03)"/><path class="cls-1" d="M415.16,173.64c-2.1,1.9-5.8,4.8-10.3,4.8-3,0-6.4-4.2-7.5-7.9a15.1,15.1,0,0,1-.5-4.2,22.61,22.61,0,0,1,1.6-8.1c0.7-1.9,1.1-3.6,1.7-5,3.1-7.3,6-14.5,9.7-22.2,1-2.1,3.1-2.7,5-2.7a5,5,0,0,1,3,.8,1.7,1.7,0,0,1,.8,1.6c0,5.3-4.1,7.8-6.4,12.7-1.7,3.7-4.5,10.5-5.9,14.2a34.18,34.18,0,0,0-2.4,9.8c0,0.9.1,3.2,1.8,3.2,2.2,0,3.3-.6,7.3-3.4,2.4-1.7,3.1-2.2,4.7-2.2a4.3,4.3,0,0,1,2.5.7,1.57,1.57,0,0,1,.6,1.4c0,1.1-.6,1.7-1.6,2.7Zm13.9-62.4a2.9,2.9,0,0,1-.5,1.8c-1.8,2.2-4.2,4.9-6.4,4.9a4.7,4.7,0,0,1-4-2,8,8,0,0,1-.7-3.4,7,7,0,0,1,1.3-4.2c1-1.2,2.8-1.7,4.9-1.7,1.6,0,3.5.5,4.2,1.3A4.67,4.67,0,0,1,429.06,111.23Z" transform="translate(-209.73 -97.03)"/><path class="cls-1" d="M440.16,134.73a44.39,44.39,0,0,0-2.3,6.2,0.35,0.35,0,0,0,.4.3,23.43,23.43,0,0,0,2.5-.4,48.39,48.39,0,0,0,13.4-5,3.1,3.1,0,0,1,1.1-.5c1.7,0,4.9,1.4,4.9,2.6s-1.1,2.9-3.3,3.8c-2.7,1.1-2.7,1.4-4.5,2.1-4.9,1.9-13.4,3.8-15.5,4.5a3.24,3.24,0,0,0-1.9,1.5,21.07,21.07,0,0,0-1.7,4.8c-0.3,1.1-.9,2.1-1.1,3.2-0.6,3.3-4,11.8-4.6,16.8-0.1.9-1.1,3.5-2.5,4.2a4,4,0,0,1-1.5.3A7,7,0,0,1,420,178a2.88,2.88,0,0,1-1.1-2.4,10.8,10.8,0,0,1,.4-3c2.5-7.4,4.3-16.1,7.5-23.8a2.53,2.53,0,0,0,.2-0.7,0.69,0.69,0,0,0-.5-0.6c-3.6-1.8-4.2-4.4-6.5-6.3a1.38,1.38,0,0,1-.5-1.2c0-.7.4-0.9,1.2-1.3a3.94,3.94,0,0,1,2-.5c2.2,0,4.7,1.6,6.5,1.6a1.63,1.63,0,0,0,1.7-1.4c0.3-1.1.8-2.6,1.6-4.7,2.4-6.1,5.1-13.9,8.5-21.2,0.6-1.3.7-1.3,1.1-1.3,1.6,0,1.8-.5,2.8-0.5a11.78,11.78,0,0,1,3.8.8,1.15,1.15,0,0,1,.9.7,5.9,5.9,0,0,1-.1,1.1C448.16,121.13,443.36,127.93,440.16,134.73Z" transform="translate(-209.73 -97.03)"/><path class="cls-1" d="M462.86,134.73a44.39,44.39,0,0,0-2.3,6.2,0.35,0.35,0,0,0,.4.3,23.43,23.43,0,0,0,2.5-.4,48.39,48.39,0,0,0,13.4-5,3.1,3.1,0,0,1,1.1-.5c1.7,0,4.9,1.4,4.9,2.6s-1.1,2.9-3.3,3.8c-2.7,1.1-2.7,1.4-4.5,2.1-4.9,1.9-13.4,3.8-15.5,4.5a3.24,3.24,0,0,0-1.9,1.5,21.07,21.07,0,0,0-1.7,4.8c-0.3,1.1-.9,2.1-1.1,3.2-0.6,3.3-4,11.8-4.6,16.8-0.1.9-1.1,3.5-2.5,4.2a4,4,0,0,1-1.5.3,7,7,0,0,1-3.6-1.1,2.88,2.88,0,0,1-1.1-2.4,10.8,10.8,0,0,1,.4-3c2.5-7.4,4.3-16.1,7.5-23.8a2.53,2.53,0,0,0,.2-0.7,0.69,0.69,0,0,0-.5-0.6c-3.6-1.8-4.2-4.4-6.5-6.3a1.38,1.38,0,0,1-.5-1.2c0-.7.4-0.9,1.2-1.3a3.94,3.94,0,0,1,2-.5c2.2,0,4.7,1.6,6.5,1.6a1.63,1.63,0,0,0,1.7-1.4c0.3-1.1.8-2.6,1.6-4.7,2.4-6.1,5.1-13.9,8.5-21.2,0.6-1.3.7-1.3,1.1-1.3,1.6,0,1.8-.5,2.8-0.5a11.78,11.78,0,0,1,3.8.8,1.15,1.15,0,0,1,.9.7,5.9,5.9,0,0,1-.1,1.1C470.86,121.13,466.06,127.93,462.86,134.73Z" transform="translate(-209.73 -97.03)"/><path class="cls-1" d="M499,137.13a13.2,13.2,0,0,1-2.9,8.3c-0.8,1-.9,1.1-1.4,1.1a6.75,6.75,0,0,1-3.5-1.3,3.81,3.81,0,0,1-1.5-3.2,1.59,1.59,0,0,1,.3-0.8,8.94,8.94,0,0,0,1.7-4.6,6.36,6.36,0,0,0-.7-2.7,3,3,0,0,0-2.2-1.4c-0.7,0-5.3,5.7-6.1,10.3a16.17,16.17,0,0,0-.2,2.6c0,0.6.5,5.1,0.7,6.4,0.9,7.5,3.2,18.7,3.2,22.8a2.54,2.54,0,0,1-.8,1.8c-1.8,1.8-3.6,3.6-6.3,3.6a8.18,8.18,0,0,1-2.5-.4c-6.6-2.7-11.3-7.9-14.6-13.4a4.23,4.23,0,0,1-.6-1.5,4,4,0,0,1,3.6-3.7c2,0,2.9.2,3.8,1.4,2.3,3.1,3.5,6.9,6.5,9.6a3,3,0,0,0,2,1.1,0.91,0.91,0,0,0,1-.8,15.23,15.23,0,0,0-.5-3.1c-1.4-6.6-3.2-21.6-3.2-23.6a27.19,27.19,0,0,1,3.6-12.2c2.9-4.6,7-6.4,8.9-6.4,5.5,0,7.7,1.4,9.8,3.6C498.46,132.13,499,135.13,499,137.13Z" transform="translate(-209.73 -97.03)"/><path class="cls-1" d="M528,180.44a7.94,7.94,0,0,1-2.9-.7c-3.8-1.4-5.4-4.6-5.4-9.5a40.24,40.24,0,0,1,1.9-11.2,95.76,95.76,0,0,1,3.7-10.3,3.78,3.78,0,0,0,.4-1.2,0.22,0.22,0,0,0-.2-0.2,2.9,2.9,0,0,0-1.3,1.1c-6.8,7.8-13.7,19.4-19.6,26.3a3.34,3.34,0,0,1-1.1,1,7.84,7.84,0,0,1-3.8,1.3,12.66,12.66,0,0,1-5.2-2.8,1.67,1.67,0,0,1-.4-1.1c0-1.1.5-1,.9-2.7,3.1-13.3,10.4-27.7,18.9-44.6,4.2-8.4,9.8-17.6,14.7-27.4a2.56,2.56,0,0,1,2.6-1.4c1,0,1.6.2,2.1,0.2a4.59,4.59,0,0,1,2.8,1.5,2.87,2.87,0,0,1,.9,2.5c0,2.6-2.1,4.2-4.7,7.4-0.9,1.1-1.1,1.6-1.9,2.7-9,12.4-16.9,32.8-24.4,48.7a13.76,13.76,0,0,0-.9,2,0.16,0.16,0,0,0,.2.2,1.69,1.69,0,0,0,.7-0.8,279.6,279.6,0,0,1,22.7-27.8c1.4-1.5,1.9-2,2.8-2.3a8.72,8.72,0,0,1,2.3-.5,14.31,14.31,0,0,1,3.7.7,2.6,2.6,0,0,1,1.5,1.9c0,2.9-1.2,4.9-3,8a41,41,0,0,0-2.6,6.1c-2.7,6.4-5.2,14.6-5.2,21.4,0,4.8,1,5.8,2.5,6.6a15.24,15.24,0,0,0,2.5.6,1,1,0,0,1,.7.8,4.28,4.28,0,0,1-.5,1.3,3,3,0,0,1-1.9,1.4A13.72,13.72,0,0,1,528,180.44Z" transform="translate(-209.73 -97.03)"/><path class="cls-1" d="M573.26,136.53c4,0,6.3-.3,8.6-0.3,3.2,0,6.2,1,6.2,2.6,0,1.3-2.5,1.6-2.8,2.1a1.11,1.11,0,0,1-1.1.6c-2,.3-4.9,1.3-7.5,1.7a24,24,0,0,1-3.9.3c-0.8,0-1,.1-1.2.8-2.6,10.7-6.2,20-12.6,26.8-2.8,3-5.5,5.9-9,5.9a5.69,5.69,0,0,1-2.4-.5c-3.8-1.8-6.6-4-7.5-6.3a23.18,23.18,0,0,1-1.5-8.3c0-8.2,4.1-15.4,8.7-22.3,1.4-2.1,1.4-1.6,2.4-3,3.2-4.5,7.4-9.2,11.8-9.2a7.88,7.88,0,0,1,5.3,1.9,3.65,3.65,0,0,1,1.4,1.7C569.06,133.53,570.36,136.53,573.26,136.53Zm-11-.4c-0.3-1-.6-1.7-1-1.7a2.45,2.45,0,0,0-1.5,1c-0.4.5-1.4,1-1.9,1.7-3.1,3.9-12.5,16.3-12.5,28a3.11,3.11,0,0,0,.3,1.4,9.31,9.31,0,0,0,2.4,3.3,1.49,1.49,0,0,0,.9.2,3.38,3.38,0,0,0,1.9-.8c0.7-.3.9-0.6,1.7-1.8,5.8-8.7,11.2-16.5,11.2-26.6a15.55,15.55,0,0,0-.1-2.1,1.47,1.47,0,0,0-.6-1.1A3.16,3.16,0,0,1,562.26,136.13Z" transform="translate(-209.73 -97.03)"/><path class="cls-1" d="M596.26,134.73a44.39,44.39,0,0,0-2.3,6.2,0.35,0.35,0,0,0,.4.3,23.43,23.43,0,0,0,2.5-.4,48.39,48.39,0,0,0,13.4-5,3.1,3.1,0,0,1,1.1-.5c1.7,0,4.9,1.4,4.9,2.6s-1.1,2.9-3.3,3.8c-2.7,1.1-2.7,1.4-4.5,2.1-4.9,1.9-13.4,3.8-15.5,4.5a3.24,3.24,0,0,0-1.9,1.5,21.07,21.07,0,0,0-1.7,4.8c-0.3,1.1-.9,2.1-1.1,3.2-0.6,3.3-4,11.8-4.6,16.8-0.1.9-1.1,3.5-2.5,4.2a4,4,0,0,1-1.5.3,7,7,0,0,1-3.6-1.1,2.88,2.88,0,0,1-1.1-2.4,10.8,10.8,0,0,1,.4-3c2.5-7.4,4.3-16.1,7.5-23.8a2.53,2.53,0,0,0,.2-0.7,0.69,0.69,0,0,0-.5-0.6c-3.6-1.8-4.2-4.4-6.5-6.3a1.38,1.38,0,0,1-.5-1.2c0-.7.4-0.9,1.2-1.3a3.94,3.94,0,0,1,2-.5c2.2,0,4.7,1.6,6.5,1.6a1.63,1.63,0,0,0,1.7-1.4c0.3-1.1.8-2.6,1.6-4.7,2.4-6.1,5.1-13.9,8.5-21.2,0.6-1.3.7-1.3,1.1-1.3,1.6,0,1.8-.5,2.8-0.5a11.78,11.78,0,0,1,3.8.8,1.15,1.15,0,0,1,.9.7,5.9,5.9,0,0,1-.1,1.1C604.26,121.13,599.46,127.93,596.26,134.73Z" transform="translate(-209.73 -97.03)"/><path class="cls-1" d="M366.32,188.33h1.42l-8.32,12V209h-1.28v-8.67l-8.26-12h1.45l7.48,11Z" transform="translate(-209.73 -97.03)"/><path class="cls-1" d="M365.1,201.59a9.8,9.8,0,0,1,.45-3,7.54,7.54,0,0,1,1.32-2.48,6.28,6.28,0,0,1,2.15-1.7,7.19,7.19,0,0,1,5.86,0,6.28,6.28,0,0,1,2.15,1.7,7.54,7.54,0,0,1,1.32,2.48,9.81,9.81,0,0,1,.45,3,10,10,0,0,1-.45,3,7.36,7.36,0,0,1-1.32,2.48,6.33,6.33,0,0,1-2.15,1.68,7.19,7.19,0,0,1-5.86,0,6.33,6.33,0,0,1-2.15-1.68,7.36,7.36,0,0,1-1.32-2.48A9.94,9.94,0,0,1,365.1,201.59Zm1.1,0a8.7,8.7,0,0,0,.38,2.57,7,7,0,0,0,1.1,2.19,5.37,5.37,0,0,0,1.8,1.52,5.66,5.66,0,0,0,4.93,0,5.37,5.37,0,0,0,1.8-1.52,7,7,0,0,0,1.1-2.19,8.92,8.92,0,0,0,0-5.13,7,7,0,0,0-1.1-2.19,5.37,5.37,0,0,0-1.8-1.52,5.66,5.66,0,0,0-4.93,0,5.37,5.37,0,0,0-1.8,1.52,7,7,0,0,0-1.1,2.19A8.71,8.71,0,0,0,366.2,201.59Z" transform="translate(-209.73 -97.03)"/><path class="cls-1" d="M393.17,209h-1.1v-3.19H392a4.78,4.78,0,0,1-.83,1.49,5.5,5.5,0,0,1-2.8,1.81,6.42,6.42,0,0,1-1.71.23,6.76,6.76,0,0,1-2.22-.32,4.35,4.35,0,0,1-1.49-.84,4,4,0,0,1-.91-1.17,5.38,5.38,0,0,1-.48-1.32,7.69,7.69,0,0,1-.17-1.29q0-.62,0-1.09v-9.22h1.1v9.42a13.72,13.72,0,0,0,.09,1.41,4.22,4.22,0,0,0,.51,1.59,3.7,3.7,0,0,0,1.26,1.32,4.32,4.32,0,0,0,2.38.55A5.28,5.28,0,0,0,389,208a4.85,4.85,0,0,0,1.7-1.29,5.67,5.67,0,0,0,1.06-2,8.28,8.28,0,0,0,.36-2.51v-8.06h1.1V209Z" transform="translate(-209.73 -97.03)"/><path class="cls-1" d="M397.52,197.44h0.09a3.63,3.63,0,0,1,.74-1.36,5.21,5.21,0,0,1,1.3-1.1,6.46,6.46,0,0,1,1.71-.71,7,7,0,0,1,2-.22v1.1a5.22,5.22,0,0,0-2,.17,4.82,4.82,0,0,0-2.13,1.28,10.3,10.3,0,0,0-.71.84,4.09,4.09,0,0,0-.51.9,5.69,5.69,0,0,0-.32,1.1,9.57,9.57,0,0,0-.15,1.45V209h-1.1V194.14h1.1v3.31Z" transform="translate(-209.73 -97.03)"/><path class="cls-1" d="M412.74,188.33h13v1.1H414v8.29h10.56v1.1H414V209h-1.28V188.33Z" transform="translate(-209.73 -97.03)"/><path class="cls-1" d="M436.52,206.08h-0.06a4.62,4.62,0,0,1-.75,1.26,5.36,5.36,0,0,1-1.2,1.06,6,6,0,0,1-1.61.72,7,7,0,0,1-2,.26,5.82,5.82,0,0,1-3.68-1,3.79,3.79,0,0,1-1.3-3.17,3.73,3.73,0,0,1,1.84-3.44,5.66,5.66,0,0,1,1.77-.68,17.35,17.35,0,0,1,1.87-.29l1.71-.15a10,10,0,0,0,1.87-.28,2.38,2.38,0,0,0,1-.52,1.49,1.49,0,0,0,.44-0.86,8.2,8.2,0,0,0,.09-1.31,2.76,2.76,0,0,0-.23-1.13,2.54,2.54,0,0,0-.72-0.93,3.59,3.59,0,0,0-1.28-.64,6.79,6.79,0,0,0-1.91-.23,5,5,0,0,0-3.23,1,3.9,3.9,0,0,0-1.35,3h-1.1a4.88,4.88,0,0,1,1.58-3.7,6.29,6.29,0,0,1,4.16-1.23,6,6,0,0,1,3.93,1.06,3.48,3.48,0,0,1,1.23,2.77v8.67c0,0.21,0,.43,0,0.64a2.15,2.15,0,0,0,.1.58,0.88,0.88,0,0,0,.29.42,0.92,0.92,0,0,0,.58.16,5.22,5.22,0,0,0,.81-0.09v0.93a3.44,3.44,0,0,1-.9.12,2.65,2.65,0,0,1-1.06-.17,1.4,1.4,0,0,1-.59-0.46,1.72,1.72,0,0,1-.28-0.68,4.75,4.75,0,0,1-.07-0.86v-0.78Zm0-5.51a2.09,2.09,0,0,1-1.23.67,15.22,15.22,0,0,1-1.84.26l-1.86.17q-0.81.09-1.62,0.25a4.74,4.74,0,0,0-1.46.54,3,3,0,0,0-1.06,1,3.18,3.18,0,0,0-.41,1.7,2.89,2.89,0,0,0,1,2.45,4.62,4.62,0,0,0,2.87.8,5.65,5.65,0,0,0,3-.68,5.28,5.28,0,0,0,1.68-1.57,4.81,4.81,0,0,0,.74-1.71,7.39,7.39,0,0,0,.16-1.12v-2.78Z" transform="translate(-209.73 -97.03)"/><path class="cls-1" d="M441.66,204.08a4.58,4.58,0,0,0,.46,1.84,4.38,4.38,0,0,0,2.58,2.22,5.93,5.93,0,0,0,1.89.29,10,10,0,0,0,1.55-.13,5.36,5.36,0,0,0,1.54-.48,3.2,3.2,0,0,0,1.17-1,2.58,2.58,0,0,0,.46-1.58,2.33,2.33,0,0,0-.75-1.88,5.26,5.26,0,0,0-1.9-1,19.14,19.14,0,0,0-2.46-.57,12.79,12.79,0,0,1-2.46-.65,5,5,0,0,1-1.9-1.23,3.85,3.85,0,0,1-.26-4.18,3.67,3.67,0,0,1,1.26-1.17,5.73,5.73,0,0,1,1.73-.62,9.93,9.93,0,0,1,1.91-.19,8.72,8.72,0,0,1,2.17.26,4.72,4.72,0,0,1,1.75.84,4,4,0,0,1,1.16,1.48,5.11,5.11,0,0,1,.42,2.17h-1.1a4.15,4.15,0,0,0-.33-1.74,3,3,0,0,0-.93-1.17,4,4,0,0,0-1.41-.67,6.69,6.69,0,0,0-1.74-.22,8.19,8.19,0,0,0-1.52.15,4.41,4.41,0,0,0-1.38.49,3.09,3.09,0,0,0-1,.9,2.24,2.24,0,0,0-.39,1.33,2.27,2.27,0,0,0,.43,1.45,3.12,3.12,0,0,0,1.15.88,7.91,7.91,0,0,0,1.59.54l1.78,0.41q1.1,0.2,2.07.48a5.83,5.83,0,0,1,1.68.75,3.42,3.42,0,0,1,1.12,1.23,4,4,0,0,1,.41,1.91,3.4,3.4,0,0,1-.55,2,4.26,4.26,0,0,1-1.39,1.26,5.93,5.93,0,0,1-1.87.67,11.24,11.24,0,0,1-2,.19,8.05,8.05,0,0,1-2.36-.33,5.36,5.36,0,0,1-1.9-1,4.83,4.83,0,0,1-1.28-1.67,5.61,5.61,0,0,1-.49-2.29h1.1Z" transform="translate(-209.73 -97.03)"/><path class="cls-1" d="M456.19,188.33v9h0.06a4.78,4.78,0,0,1,.83-1.49,5.48,5.48,0,0,1,2.8-1.81,6.38,6.38,0,0,1,1.71-.23,6.77,6.77,0,0,1,2.22.32,4.36,4.36,0,0,1,1.49.84,4.06,4.06,0,0,1,.91,1.17,5.5,5.5,0,0,1,.48,1.32,7.9,7.9,0,0,1,.17,1.29q0,0.62,0,1.09V209h-1.1v-9.42q0-.55-0.09-1.39a4.22,4.22,0,0,0-.51-1.61,3.7,3.7,0,0,0-1.28-1.32,4.35,4.35,0,0,0-2.36-.55,5.26,5.26,0,0,0-2.26.46,4.91,4.91,0,0,0-1.68,1.29,5.67,5.67,0,0,0-1.06,2,8.26,8.26,0,0,0-.36,2.51V209h-1.1V188.33h1.1Z" transform="translate(-209.73 -97.03)"/><path class="cls-1" d="M470.4,191.32v-3h1.1v3h-1.1Zm0,17.72V194.14h1.1V209h-1.1Z" transform="translate(-209.73 -97.03)"/><path class="cls-1" d="M474.31,201.59a9.8,9.8,0,0,1,.45-3,7.53,7.53,0,0,1,1.32-2.48,6.28,6.28,0,0,1,2.15-1.7,7.19,7.19,0,0,1,5.86,0,6.28,6.28,0,0,1,2.15,1.7,7.55,7.55,0,0,1,1.32,2.48,9.83,9.83,0,0,1,.45,3,10,10,0,0,1-.45,3,7.37,7.37,0,0,1-1.32,2.48,6.33,6.33,0,0,1-2.15,1.68,7.19,7.19,0,0,1-5.86,0,6.33,6.33,0,0,1-2.15-1.68,7.35,7.35,0,0,1-1.32-2.48A9.94,9.94,0,0,1,474.31,201.59Zm1.1,0a8.7,8.7,0,0,0,.38,2.57,7,7,0,0,0,1.1,2.19,5.37,5.37,0,0,0,1.8,1.52,5.66,5.66,0,0,0,4.93,0,5.37,5.37,0,0,0,1.8-1.52,7,7,0,0,0,1.1-2.19,8.92,8.92,0,0,0,0-5.13,7,7,0,0,0-1.1-2.19,5.37,5.37,0,0,0-1.8-1.52,5.66,5.66,0,0,0-4.93,0,5.37,5.37,0,0,0-1.8,1.52,7,7,0,0,0-1.1,2.19A8.71,8.71,0,0,0,475.41,201.59Z" transform="translate(-209.73 -97.03)"/><path class="cls-1" d="M490.58,194.14h1.1v3.19h0.06a4.74,4.74,0,0,1,.83-1.49,5.48,5.48,0,0,1,2.8-1.81,6.38,6.38,0,0,1,1.71-.23,6.76,6.76,0,0,1,2.22.32,4.36,4.36,0,0,1,1.49.84,4.06,4.06,0,0,1,.91,1.17,5.41,5.41,0,0,1,.48,1.32,7.8,7.8,0,0,1,.17,1.29q0,0.62,0,1.09V209h-1.1v-9.42a13.85,13.85,0,0,0-.09-1.39,4.22,4.22,0,0,0-.51-1.61,3.69,3.69,0,0,0-1.28-1.32,4.35,4.35,0,0,0-2.36-.55,5.26,5.26,0,0,0-2.26.46,4.9,4.9,0,0,0-1.68,1.29,5.69,5.69,0,0,0-1.06,2,8.29,8.29,0,0,0-.36,2.51V209h-1.1V194.14Z" transform="translate(-209.73 -97.03)"/><path class="cls-1" d="M527.41,194.25a5.53,5.53,0,0,0-.57-2.32,4.86,4.86,0,0,0-1.38-1.65,6,6,0,0,0-2.07-1,9.84,9.84,0,0,0-2.62-.33,9.48,9.48,0,0,0-1.87.2,5.94,5.94,0,0,0-1.86.71,4.22,4.22,0,0,0-1.41,1.36,3.86,3.86,0,0,0-.55,2.13,3.21,3.21,0,0,0,.61,2,4.42,4.42,0,0,0,1.6,1.26,10.46,10.46,0,0,0,2.26.77q1.28,0.29,2.58.55t2.6,0.62a8.91,8.91,0,0,1,2.26,1,4.87,4.87,0,0,1,1.61,1.62,4.75,4.75,0,0,1,.61,2.51,5,5,0,0,1-.7,2.73,5.88,5.88,0,0,1-1.75,1.8,7.29,7.29,0,0,1-2.35,1,10.79,10.79,0,0,1-2.48.3,14.33,14.33,0,0,1-3.42-.39,7.65,7.65,0,0,1-2.78-1.28,6.15,6.15,0,0,1-1.87-2.28,7.4,7.4,0,0,1-.65-3.39h1.28a5.8,5.8,0,0,0,.49,2.89,5.21,5.21,0,0,0,1.61,1.93A6.66,6.66,0,0,0,519,208.1a12.51,12.51,0,0,0,2.93.33,9.27,9.27,0,0,0,2-.23,6.1,6.1,0,0,0,1.94-.78,4.81,4.81,0,0,0,1.48-1.45,4,4,0,0,0,.59-2.26,3.5,3.5,0,0,0-.61-2.13,4.45,4.45,0,0,0-1.61-1.33,10.34,10.34,0,0,0-2.26-.81q-1.26-.3-2.6-0.57t-2.58-.61a8.86,8.86,0,0,1-2.26-.94,4.83,4.83,0,0,1-1.59-1.54,4.38,4.38,0,0,1-.61-2.42,4.92,4.92,0,0,1,.62-2.54,5.11,5.11,0,0,1,1.62-1.71,7.22,7.22,0,0,1,2.25-1,10.36,10.36,0,0,1,2.46-.3,12.08,12.08,0,0,1,3,.36,7.19,7.19,0,0,1,2.46,1.13,5.66,5.66,0,0,1,1.7,2,7,7,0,0,1,.72,2.93h-1.28Z" transform="translate(-209.73 -97.03)"/><path class="cls-1" d="M543.48,205.71h-0.08a5.1,5.1,0,0,1-2.13,2.73,6.15,6.15,0,0,1-1.61.71,6.44,6.44,0,0,1-1.77.25,6.57,6.57,0,0,1-2.92-.61,5.9,5.9,0,0,1-2.07-1.65,7,7,0,0,1-1.23-2.48,11.84,11.84,0,0,1,0-6,7.42,7.42,0,0,1,1.16-2.48,5.74,5.74,0,0,1,2-1.71,6.93,6.93,0,0,1,6.29.25,6.77,6.77,0,0,1,2.32,2.65h0.06v-3.19h1.07v20.24h-1.07v-8.67Zm-5.57,2.73a5.08,5.08,0,0,0,2.48-.58,5,5,0,0,0,1.73-1.55,7.15,7.15,0,0,0,1-2.2,9.65,9.65,0,0,0,.33-2.54,9.56,9.56,0,0,0-.33-2.51,6.79,6.79,0,0,0-1-2.19,5.23,5.23,0,0,0-1.71-1.54,4.92,4.92,0,0,0-2.45-.58,5.16,5.16,0,0,0-2.49.57,5,5,0,0,0-1.73,1.52,6.8,6.8,0,0,0-1,2.19,9.71,9.71,0,0,0-.33,2.54,10.77,10.77,0,0,0,.3,2.59,6.38,6.38,0,0,0,1,2.19,5,5,0,0,0,1.73,1.52A5.23,5.23,0,0,0,537.91,208.43Z" transform="translate(-209.73 -97.03)"/><path class="cls-1" d="M559.89,209h-1.1v-3.19h-0.06a4.79,4.79,0,0,1-.83,1.49,5.5,5.5,0,0,1-2.8,1.81,6.42,6.42,0,0,1-1.71.23,6.76,6.76,0,0,1-2.22-.32,4.34,4.34,0,0,1-1.49-.84,4,4,0,0,1-.91-1.17,5.4,5.4,0,0,1-.48-1.32,7.69,7.69,0,0,1-.17-1.29q0-.62,0-1.09v-9.22h1.1v9.42a13.58,13.58,0,0,0,.09,1.41,4.21,4.21,0,0,0,.51,1.59,3.71,3.71,0,0,0,1.26,1.32,4.32,4.32,0,0,0,2.38.55,5.28,5.28,0,0,0,2.25-.46,4.85,4.85,0,0,0,1.7-1.29,5.69,5.69,0,0,0,1.06-2,8.29,8.29,0,0,0,.36-2.51v-8.06h1.1V209Z" transform="translate(-209.73 -97.03)"/><path class="cls-1" d="M573,206.08H573a4.62,4.62,0,0,1-.75,1.26,5.36,5.36,0,0,1-1.2,1.06,6,6,0,0,1-1.61.72,7,7,0,0,1-2,.26,5.82,5.82,0,0,1-3.68-1,3.79,3.79,0,0,1-1.3-3.17,3.73,3.73,0,0,1,1.84-3.44,5.66,5.66,0,0,1,1.77-.68,17.35,17.35,0,0,1,1.87-.29l1.71-.15a10,10,0,0,0,1.87-.28,2.38,2.38,0,0,0,1-.52A1.49,1.49,0,0,0,573,199a8.2,8.2,0,0,0,.09-1.31,2.76,2.76,0,0,0-.23-1.13,2.54,2.54,0,0,0-.72-0.93,3.59,3.59,0,0,0-1.28-.64,6.79,6.79,0,0,0-1.91-.23,5,5,0,0,0-3.23,1,3.9,3.9,0,0,0-1.35,3h-1.1a4.88,4.88,0,0,1,1.58-3.7,6.29,6.29,0,0,1,4.16-1.23,6,6,0,0,1,3.93,1.06,3.48,3.48,0,0,1,1.23,2.77v8.67c0,0.21,0,.43,0,0.64a2.15,2.15,0,0,0,.1.58,0.88,0.88,0,0,0,.29.42,0.92,0.92,0,0,0,.58.16,5.22,5.22,0,0,0,.81-0.09v0.93a3.44,3.44,0,0,1-.9.12,2.65,2.65,0,0,1-1.06-.17,1.4,1.4,0,0,1-.59-0.46,1.72,1.72,0,0,1-.28-0.68,4.75,4.75,0,0,1-.07-0.86v-0.78Zm0-5.51a2.09,2.09,0,0,1-1.23.67,15.22,15.22,0,0,1-1.84.26l-1.86.17q-0.81.09-1.62,0.25a4.74,4.74,0,0,0-1.46.54,3,3,0,0,0-1.06,1,3.18,3.18,0,0,0-.41,1.7,2.89,2.89,0,0,0,1,2.45,4.62,4.62,0,0,0,2.87.8,5.65,5.65,0,0,0,3-.68,5.28,5.28,0,0,0,1.68-1.57,4.81,4.81,0,0,0,.74-1.71,7.39,7.39,0,0,0,.16-1.12v-2.78Z" transform="translate(-209.73 -97.03)"/><path class="cls-1" d="M589.15,205.85h-0.06a6.78,6.78,0,0,1-2.32,2.65,6.93,6.93,0,0,1-6.29.25,5.71,5.71,0,0,1-2-1.71,7.39,7.39,0,0,1-1.16-2.48,11.81,11.81,0,0,1,0-6,7,7,0,0,1,1.23-2.48,5.92,5.92,0,0,1,2.07-1.65,6.6,6.6,0,0,1,2.93-.61,6.47,6.47,0,0,1,1.77.25,6.2,6.2,0,0,1,1.61.71,5.11,5.11,0,0,1,2.13,2.73h0.06v-9.14h1.1V209h-1.1v-3.19Zm-5.54,2.58a4.91,4.91,0,0,0,2.45-.58,5.22,5.22,0,0,0,1.71-1.54,6.81,6.81,0,0,0,1-2.19,9.59,9.59,0,0,0,.33-2.51,9.69,9.69,0,0,0-.33-2.54,7.15,7.15,0,0,0-1-2.2,4.94,4.94,0,0,0-1.73-1.55,5.08,5.08,0,0,0-2.48-.58,5.23,5.23,0,0,0-2.52.57,5,5,0,0,0-1.73,1.52,6.37,6.37,0,0,0-1,2.2,10.84,10.84,0,0,0-.3,2.58,9.65,9.65,0,0,0,.33,2.54,6.79,6.79,0,0,0,1,2.19,5,5,0,0,0,1.73,1.52A5.17,5.17,0,0,0,583.61,208.43Z" transform="translate(-209.73 -97.03)"/><polygon class="cls-2" points="55.64 15.14 109.55 15.14 82.6 61.83 55.64 108.52 28.69 61.83 1.73 15.14 55.64 15.14"/><polygon class="cls-2" points="79.18 1.72 133.09 1.72 106.14 48.4 79.18 95.09 52.23 48.4 25.27 1.72 79.18 1.72"/></svg>